<svg xmlns="http://www.w3.org/2000/svg" viewBox="0 0 707 1279.57"><defs><style>.cls-1{fill:#fff;}</style></defs><g id="Camada_2" data-name="Camada 2"><g id="Layer_1" data-name="Layer 1"><path class="cls-1" d="M626,1024.35c0,96.15-78.35,174.38-174.5,174.38S277,1120.5,277,1024.35v-22.88c0-46.79,18.73-90.72,51.92-123.7A173.69,173.69,0,0,1,452,827.08h1.25l.57-80.84a254.59,254.59,0,0,0-182,74.18C223.25,868.69,196,933,196,1001.47v22.88c0,68.17,27.08,132.26,75.28,180.47A255.18,255.18,0,0,0,707,1024.35V521.79H626Z"/><path class="cls-1" d="M632.5,74.75a255.64,255.64,0,0,0-361.28,0C223,123,196,187.05,196,255.22V453.79H0v81H196V732.62a387.27,387.27,0,0,1,81-58.47V534.79H450v-81H277V255.22c0-96.15,78.35-174.38,174.5-174.38S626,159.07,626,255.22v90.57h81V255.22C707,187.05,680.71,123,632.5,74.75Z"/></g></g></svg>